<svg width="58" height="58" viewBox="0 0 58 58" fill="none" xmlns="http://www.w3.org/2000/svg">
<path id="Vector" d="M15.8933 42.1067C19.3694 45.5828 24.084 47.5357 29 47.5357C33.916 47.5357 38.6306 45.5828 42.1067 42.1067C45.5828 38.6306 47.5357 33.916 47.5357 29C47.5357 24.084 45.5828 19.3694 42.1067 15.8933C38.6306 12.4172 33.916 10.4643 29 10.4643C24.084 10.4643 19.3694 12.4172 15.8933 15.8933C12.4172 19.3694 10.4643 24.084 10.4643 29C10.4643 33.916 12.4172 38.6306 15.8933 42.1067ZM48.6222 9.37779C53.8263 14.5819 56.75 21.6402 56.75 29C56.75 36.3598 53.8263 43.4181 48.6222 48.6222C43.4181 53.8263 36.3598 56.75 29 56.75C21.6402 56.75 14.5819 53.8263 9.37779 48.6222C4.17365 43.4181 1.25 36.3598 1.25 29C1.25 21.6402 4.17365 14.5819 9.37779 9.37779C14.5819 4.17365 21.6402 1.25 29 1.25C36.3598 1.25 43.4181 4.17365 48.6222 9.37779Z" fill="#F7B336" stroke="#F7B336" stroke-width="1.5"/>
</svg>
